<?xml version="1.0" encoding="UTF-8" standalone="no"?>
<svg
   xmlns:dc="http://purl.org/dc/elements/1.1/"
   xmlns:cc="http://creativecommons.org/ns#"
   xmlns:rdf="http://www.w3.org/1999/02/22-rdf-syntax-ns#"
   xmlns:svg="http://www.w3.org/2000/svg"
   xmlns="http://www.w3.org/2000/svg"
   xmlns:sodipodi="http://sodipodi.sourceforge.net/DTD/sodipodi-0.dtd"
   xmlns:inkscape="http://www.inkscape.org/namespaces/inkscape"
   inkscape:version="1.0 (4035a4fb49, 2020-05-01)"
   sodipodi:docname="icon.svg"
   id="svg8"
   version="1.1"
   viewBox="0 0 137.50305 137.26787"
   height="137.26787mm"
   width="137.50305mm">
  <defs
     id="defs2" />
  <sodipodi:namedview
     inkscape:window-maximized="0"
     inkscape:window-y="0"
     inkscape:window-x="130"
     inkscape:window-height="861"
     inkscape:window-width="1274"
     showgrid="false"
     inkscape:document-rotation="0"
     inkscape:current-layer="layer1"
     inkscape:document-units="mm"
     inkscape:cy="483.26826"
     inkscape:cx="313.60966"
     inkscape:zoom="0.35"
     inkscape:pageshadow="2"
     inkscape:pageopacity="0.0"
     borderopacity="1.0"
     bordercolor="#666666"
     pagecolor="#ffffff"
     id="base" />
  <metadata
     id="metadata5">
    <rdf:RDF>
      <cc:Work
         rdf:about="">
        <dc:format>image/svg+xml</dc:format>
        <dc:type
           rdf:resource="http://purl.org/dc/dcmitype/StillImage" />
        <dc:title></dc:title>
      </cc:Work>
    </rdf:RDF>
  </metadata>
  <g
     transform="translate(-22.857444,-20.30194)"
     id="layer1"
     inkscape:groupmode="layer"
     inkscape:label="Layer 1">
    <path
       id="path847"
       d="m 55.803922,157.02391 c -0.48507,-0.27729 -1.29907,-0.50979 -1.80889,-0.51666 -0.50981,-0.007 -1.12456,-0.25063 -1.36611,-0.54167 -0.24154,-0.29104 -0.71779,-0.52917 -1.05833,-0.52917 -0.34054,0 -0.81679,-0.23812 -1.05833,-0.52916 -0.24155,-0.29105 -0.72935,-0.52917 -1.084,-0.52917 -0.35466,0 -0.77179,-0.21041 -0.92695,-0.46758 -0.15516,-0.25716 -0.52024,-0.58089 -0.81128,-0.71939 -1.83767,-0.87449 -3.03925,-1.89037 -7.02895,-5.94259 -3.3101,-3.36197 -3.33567,-3.39137 -4.61271,-5.30345 -0.48507,-0.72628 -0.98548,-1.32159 -1.11202,-1.32291 -0.12654,-0.001 -0.40482,-0.43898 -0.61841,-0.97255 -0.21358,-0.53358 -0.703,-1.44639 -1.0876,-2.02848 -0.3846,-0.58208 -0.85059,-1.4001 -1.03553,-1.81781 -0.18494,-0.41771 -0.5048,-0.86365 -0.71079,-0.99096 -0.206,-0.12731 -0.37454,-0.52262 -0.37454,-0.87847 0,-0.35585 -0.23813,-0.73837 -0.52917,-0.85005 -0.29104,-0.11168 -0.52917,-0.58548 -0.52917,-1.05288 0,-0.4674 -0.23812,-1.04745 -0.52916,-1.28899 -0.29104,-0.24155 -0.52917,-0.79717 -0.52917,-1.23472 0,-0.43756 -0.23812,-0.99318 -0.52917,-1.23473 -0.29104,-0.24154 -0.52916,-0.87654 -0.52916,-1.41111 0,-0.53456 -0.23813,-1.16956 -0.52917,-1.41111 -0.29104,-0.24154 -0.53421,-0.77692 -0.54039,-1.18972 -0.006,-0.41281 -0.24429,-1.05871 -0.52916,-1.43534 -0.28487,-0.37664 -0.51893,-1.09101 -0.52012,-1.5875 -0.001,-0.4965 -0.23932,-1.35743 -0.52917,-1.91318 -0.28985,-0.55576 -0.52699,-1.42993 -0.52699,-1.94261 0,-0.51267 -0.17552,-1.48672 -0.39005,-2.16453 -0.94584,-2.98845 -1.50122,-8.49544 -1.51184,-14.99073 -0.0106,-6.459939 0.54798,-13.125219 1.20207,-14.344919 0.17302,-0.32262 0.4255,-1.42276 0.56107,-2.44477 0.13557,-1.022 0.4594,-2.26616 0.71962,-2.7648 0.26021,-0.49864 0.47914,-1.3035 0.48651,-1.78857 0.007,-0.48507 0.24647,-1.1901 0.53134,-1.56673 0.28487,-0.37663 0.51794,-1.11126 0.51794,-1.6325 0,-0.52124 0.23813,-1.14534 0.52917,-1.38688 0.29104,-0.24154 0.52917,-0.87654 0.52917,-1.41111 0,-0.53457 0.23812,-1.16957 0.52916,-1.41111 0.29105,-0.24155 0.52917,-0.7178 0.52917,-1.05834 0,-0.34054 0.23813,-0.81679 0.52917,-1.05833 0.29104,-0.24154 0.52916,-0.80724 0.52916,-1.2571 0,-0.44986 0.14873,-0.90984 0.3305,-1.02218 0.18177,-0.11234 0.74204,-1.07421 1.24505,-2.13749 0.50301,-1.06328 1.06867,-1.93323 1.25701,-1.93323 0.18834,0 0.34244,-0.23016 0.34244,-0.51148 0,-1.74971 7.03771,-10.27267 10.93612,-13.24409 0.87312,-0.6655 2.0542,-1.65276 2.62461,-2.19389 0.57041,-0.54113 1.17215,-0.98387 1.3372,-0.98387 0.26365,0 2.265,-1.28793 2.74096,-1.76389 0.097,-0.097 0.96732,-0.57326 1.93402,-1.05833 0.96669,-0.48507 1.97022,-1.08039 2.23006,-1.32292 0.25984,-0.24254 0.68635,-0.44097 0.94781,-0.44097 0.26146,0 0.92481,-0.22842 1.47411,-0.50759 1.96619,-0.99927 3.58628,-1.60908 4.27491,-1.60908 0.38506,0 1.15482,-0.23715 1.71057,-0.52699 1.39149,-0.72571 10.27881,-0.71993 12.29936,0.008 0.77611,0.2796 1.78399,0.51076 2.23974,0.51368 0.45574,0.003 1.40824,0.25796 2.11666,0.56675 2.58613,1.12726 4.46717,2.03237 4.63943,2.23237 0.097,0.11264 0.79971,0.5223 1.56156,0.91036 0.76185,0.38805 1.5556,0.86451 1.76389,1.05879 0.20829,0.19429 0.97295,0.74991 1.69922,1.23472 0.72628,0.48482 1.32159,0.99904 1.32292,1.1427 0.001,0.14368 0.34966,1.05649 0.77407,2.02848 0.97099,2.22376 1.48223,2.24581 4.16723,0.17975 1.13469,-0.87312 2.32845,-1.5875 2.6528,-1.5875 0.32435,0 1.011086,-0.21402 1.526098,-0.4756 3.60787,-1.83247 3.53746,-1.81745 8.52061,-1.81745 4.83502,0 5.56246,0.14786 8.11438,1.6494 0.29104,0.17125 0.80697,0.40464 1.14652,0.51865 0.33955,0.11401 0.61736,0.43648 0.61736,0.71661 0,0.37282 0.35453,0.47997 1.32292,0.39983 1.07409,-0.0889 1.34465,-0.26285 1.43847,-0.92482 0.0636,-0.44842 0.34137,-0.90197 0.61736,-1.00788 0.276,-0.10591 0.50181,-0.3577 0.50181,-0.55953 0,-0.20184 0.98331,-1.33579 2.18514,-2.5199 1.8339,-1.80686 2.22478,-2.4081 2.43173,-3.74042 0.49791,-3.20549 1.12187,-5.84433 1.59777,-6.75721 0.26847,-0.51501 0.48814,-1.25584 0.48814,-1.6463 0,-0.39045 0.11906,-0.76283 0.26458,-0.82751 0.29474,-0.13099 1.85208,-2.28183 1.85208,-2.5579 0,-0.29278 2.69312,-3.02775 2.98142,-3.02775 0.14764,0 0.86976,-0.476254 1.60469,-1.058338 0.73494,-0.582083 1.57179,-1.058333 1.85966,-1.058333 0.28787,0 0.72102,-0.238125 0.96257,-0.529167 0.24154,-0.291041 0.85629,-0.530144 1.36611,-0.53134 0.50982,-0.0012 1.38165,-0.23932 1.93741,-0.529166 1.14601,-0.597687 8.85414,-0.766331 9.20331,-0.201358 0.11069,0.1791 0.71537,0.437288 1.34374,0.57375 1.47583,0.320505 5.19943,3.186392 5.19943,4.001762 0,0.17327 0.23812,0.40641 0.52916,0.51809 0.29105,0.11169 0.52917,0.50611 0.52917,0.87649 0,0.37039 0.21559,0.85236 0.47908,1.07104 0.5891,0.48891 1.0791,3.91287 1.06614,7.4499 -0.0161,4.39675 -0.75349,13.86848 -1.16213,14.92783 -0.2107,0.5462 -0.38309,1.85034 -0.38309,2.89808 0,1.04775 -0.21982,2.58522 -0.48848,3.41662 -0.77471,2.39737 -1.30756,14.50485 -1.26564,28.75824 0.0212,7.22453 -0.0583,13.292419 -0.17688,13.484209 -0.11853,0.19179 -1.5595,1.00532 -3.20216,1.80784 -1.64266,0.80252 -3.07406,1.60057 -3.1809,1.77344 -0.10683,0.17286 -0.55,0.3143 -0.98482,0.3143 -0.43481,0 -0.97596,0.1854 -1.20257,0.412 -0.9815,0.9815 -3.2206,1.48537 -7.166,1.61257 -3.37849,0.10892 -4.16434,0.0367 -4.54111,-0.41727 -0.25059,-0.30193 -0.89298,-0.54897 -1.42755,-0.54897 -0.53457,0 -1.15524,-0.22086 -1.37926,-0.49079 -0.43949,-0.52955 -2.29219,-0.9237 -2.78945,-0.59343 -0.16751,0.11125 -0.48171,1.15478 -0.69822,2.31894 -0.21652,1.16417 -0.56866,3.06917 -0.78255,4.23334 -0.21389,1.16416 -0.55304,2.64471 -0.75366,3.29009 -0.20062,0.64539 -0.49535,2.47101 -0.65494,4.05695 -0.1596,1.58593 -0.44759,3.38628 -0.63998,4.00078 -0.29716,0.94915 -0.58218,4.94554 -0.45496,6.37926 0.0215,0.24253 0.31694,0.44602 0.65649,0.45219 0.33955,0.006 0.92552,0.2443 1.30215,0.52917 0.37663,0.28487 1.17038,0.52235 1.76389,0.52774 0.7222,0.007 1.41941,0.35659 2.10804,1.05834 0.56591,0.57669 1.15454,1.04853 1.30806,1.04853 0.15352,0 0.9605,0.65341 1.79328,1.45203 0.83279,0.79862 1.87135,1.69 2.30791,1.98085 0.74524,0.4965 0.79307,0.76893 0.78254,4.457 -0.008,2.89382 -0.14761,4.10849 -0.52917,4.61296 -0.28487,0.37664 -0.51795,1.03189 -0.51795,1.45611 0,0.42423 -0.23812,0.96895 -0.52917,1.21049 -0.29104,0.24155 -0.52916,0.56319 -0.52916,0.71475 0,0.93337 -5.74782,5.98803 -6.80918,5.98803 -0.28202,0 -0.71039,0.23813 -0.95193,0.52917 -0.24155,0.29104 -0.79722,0.52917 -1.23484,0.52917 -0.43762,0 -1.36558,0.23812 -2.06214,0.52916 -1.0493,0.43843 -3.46131,0.52653 -14.066,0.51381 -7.03974,-0.008 -13.513898,-0.16984 -14.387018,-0.35863 -0.87313,-0.18879 -2.41066,-0.47141 -3.41675,-0.62804 -1.00609,-0.15664 -2.07003,-0.48462 -2.36432,-0.72886 -0.29429,-0.24424 -0.8417,-0.34675 -1.21648,-0.2278 -0.46276,0.14687 -1.20494,-0.18336 -2.31303,-1.02919 -0.8974,-0.685 -1.794,-1.24545 -1.99244,-1.24545 -0.19843,0 -0.45217,-0.23813 -0.56385,-0.52917 -0.32131,-0.83732 -1.85116,-0.61828 -3.25181,0.46557 -2.01881,1.5622 -4.31312,3.02152 -6.13423,3.90175 -0.92055,0.44495 -1.76336,0.95402 -1.8729,1.13126 -0.10954,0.17724 -0.55633,0.32225 -0.99286,0.32225 -0.43654,0 -1.10186,0.23308 -1.47849,0.51795 -0.37663,0.28487 -1.17038,0.52299 -1.76389,0.52917 -0.5935,0.006 -1.38725,0.24429 -1.76389,0.52916 -0.97351,0.73634 -11.21831,0.74553 -12.50284,0.0112 z m 7.23195,-16.93202 c 0.77611,-0.33885 1.64923,-0.74735 1.94027,-0.90778 0.29105,-0.16044 1.14359,-0.62484 1.89455,-1.032 3.84171,-2.08296 12.26856,-9.73005 13.43806,-12.19461 0.32281,-0.68027 0.53723,-1.66799 0.47647,-2.19494 -0.10423,-0.90398 -0.22513,-0.96407 -2.14074,-1.06395 -1.83576,-0.0957 -2.21682,0.018 -3.97728,1.18649 -1.63757,1.08696 -6.28201,5.01171 -6.86883,5.80445 -0.097,0.13106 -1.20827,0.9546 -2.46945,1.8301 -2.94584,2.04497 -5.40446,2.47108 -7.58472,1.31453 -1.77725,-0.94276 -4.4501,-3.52373 -5.70475,-5.50864 -0.52929,-0.83735 -1.07581,-1.52246 -1.21451,-1.52246 -0.73885,0 -5.95891,-9.88814 -5.95393,-11.27828 0.002,-0.57896 0.39576,-1.20242 1.12049,-1.7745 1.85994,-1.46816 10.21104,-9.86582 12.82699,-12.89851 2.64385,-3.065029 3.63202,-4.291559 5.66657,-7.033439 0.71987,-0.97014 1.44236,-1.8168 1.60553,-1.88148 0.16316,-0.0647 0.29666,-0.33115 0.29666,-0.59216 0,-0.26102 0.20882,-0.68435 0.46405,-0.94074 0.3962,-0.39803 1.5351,-2.15926 2.88734,-4.46509 0.19403,-0.33085 0.78934,-1.34096 1.32292,-2.24469 0.53358,-0.90373 0.97014,-1.87325 0.97014,-2.15449 0,-0.28124 0.23812,-0.70897 0.52917,-0.95051 0.29104,-0.24155 0.52916,-0.79717 0.52916,-1.23473 0,-0.43755 0.23813,-0.99317 0.52917,-1.23472 0.29104,-0.24154 0.52917,-0.78626 0.52917,-1.21049 0,-0.42423 0.23307,-1.07948 0.51794,-1.45611 0.28487,-0.37663 0.523,-1.09101 0.52917,-1.5875 0.006,-0.49649 0.2443,-1.21087 0.52917,-1.5875 0.28487,-0.37663 0.52299,-1.20582 0.52916,-1.84265 0.006,-0.63682 0.26123,-1.74807 0.5668,-2.46944 0.44403,-1.04825 0.5592,-2.79902 0.57364,-8.71992 0.0167,-6.85967 -0.0365,-7.50992 -0.71879,-8.78 -0.71781,-1.33621 -2.41307,-2.68528 -3.37437,-2.68528 -0.26259,0 -0.67507,-0.23812 -0.91661,-0.52916 -0.24155,-0.29104 -0.94502,-0.52917 -1.56327,-0.52917 -0.61826,0 -1.43226,-0.23308 -1.80889,-0.51795 -0.97593,-0.73816 -8.50753,-0.73816 -9.48346,0 -0.37664,0.28487 -1.03189,0.51795 -1.45611,0.51795 -0.42423,0 -0.96895,0.23813 -1.21049,0.52917 -0.24155,0.29104 -0.7178,0.52916 -1.05834,0.52916 -0.34054,0 -0.81679,0.23813 -1.05833,0.52917 -0.24155,0.29104 -0.6499,0.52917 -0.90746,0.52917 -0.49357,0 -2.97825,1.56538 -5.14053,3.23859 -0.70702,0.54711 -1.50896,0.99474 -1.78209,0.99474 -1.47783,0 -8.44048,8.95784 -11.17842,14.38167 -1.74535,3.45753 -3.92996,9.11842 -4.43081,11.4814 -0.25445,1.20052 -0.6337,2.81776 -0.84277,3.59387 -0.96892,3.59688 -1.73093,14.29221 -1.17545,16.498239 0.20864,0.8286 0.40472,2.85297 0.43573,4.4986 0.031,1.64563 0.27611,3.52738 0.54465,4.18167 0.26854,0.65428 0.48826,1.65157 0.48826,2.21619 0,0.56462 0.23812,1.59649 0.52917,2.29305 0.29104,0.69657 0.52916,1.61362 0.52916,2.03791 0,0.42429 0.23308,1.0796 0.51795,1.45623 0.28487,0.37663 0.52838,0.92291 0.54114,1.21395 0.0128,0.29104 0.32991,1.16417 0.7048,1.94028 0.37489,0.77611 0.687,1.6127 0.69359,1.85909 0.007,0.24639 0.41571,1.08755 0.90916,1.86924 0.49346,0.78169 1.05179,1.77072 1.24072,2.19785 1.52368,3.44456 6.38443,9.78543 9.51951,12.41826 1.38625,1.16417 2.82293,2.39448 3.19262,2.73403 0.3697,0.33955 0.89087,0.61736 1.15815,0.61736 0.26728,0 0.67598,0.22895 0.90822,0.50878 0.57547,0.6934 1.98429,0.85192 6.54331,0.73625 2.7398,-0.0695 4.29538,-0.27957 5.29167,-0.71455 z m -21.10571,-34.66173 c -0.0864,-0.14552 -0.25821,-1.29646 -0.38183,-2.55764 -0.12362,-1.26118 -0.39951,-3.80118 -0.6131,-5.64444 -0.3127,-2.698679 -0.27235,-4.755429 0.20718,-10.560479 0.32753,-3.965 0.76056,-7.51748 0.96229,-7.89441 0.20172,-0.37692 0.49827,-1.49846 0.659,-2.4923 0.39929,-2.46889 1.03552,-4.79601 1.61808,-5.91836 0.26732,-0.515 0.49108,-1.22938 0.49725,-1.5875 0.006,-0.35811 0.2443,-0.95928 0.52917,-1.33591 0.28487,-0.37663 0.51794,-0.96546 0.51794,-1.30849 0,-0.99741 2.88337,-6.32436 4.70378,-8.69012 0.91824,-1.19333 2.63442,-2.91215 3.81373,-3.81961 l 2.1442,-1.64992 2.92475,0.0134 c 2.75851,0.0127 3.01493,0.0807 4.51148,1.1973 1.97171,1.47107 2.39877,2.92746 2.62294,8.94496 0.17648,4.73724 -0.45812,9.15462 -1.92585,13.40555 -0.46895,1.3582 -1.00776,2.98538 -1.19736,3.61597 -0.18959,0.63059 -0.49601,1.14653 -0.68091,1.14653 -0.50063,0 -0.4063,-1.50537 0.14429,-2.30275 0.26427,-0.38272 0.57762,-1.48961 0.69634,-2.45975 0.11873,-0.97014 0.3693,-2.55764 0.55682,-3.52778 0.18753,-0.97014 0.35042,-2.76105 0.36199,-3.97982 0.0242,-2.55538 -0.50849,-3.07915 -1.99956,-1.9659 -1.09156,0.81497 -3.91524,4.67313 -3.96421,5.41656 -0.0192,0.29104 -0.26794,0.83732 -0.55281,1.21395 -0.28487,0.37663 -0.523,1.01163 -0.52917,1.41111 -0.006,0.39948 -0.2443,1.03448 -0.52916,1.41111 -0.28488,0.37664 -0.51795,1.03318 -0.51795,1.45898 0,0.42581 -0.23715,1.2289 -0.527,1.78466 -0.28984,0.55575 -0.52797,1.42764 -0.52916,1.93752 -10e-4,0.50988 -0.21937,1.46238 -0.48484,2.11667 -0.46825,1.15408 -1.02668,5.88392 -1.07908,9.13967 -0.0251,1.55726 -0.6384,2.89314 -1.91395,4.16869 -0.33347,0.33346 -1.07692,1.230739 -1.65211,1.993949 -0.57519,0.7632 -2.38065,2.78163 -4.01214,4.48539 -2.67254,2.79094 -3.92521,3.60102 -4.38104,2.83316 z m 16.51959,-18.079859 c 0.11992,-0.19403 0.28804,-0.35278 0.3736,-0.35278 0.0856,0 0.15557,0.15875 0.15557,0.35278 0,0.19403 -0.16812,0.35278 -0.3736,0.35278 -0.20548,0 -0.27548,-0.15875 -0.15557,-0.35278 z m 0.88195,-1.72225 c 0,-0.19403 0.15875,-0.45089 0.35278,-0.57081 0.19402,-0.11991 0.35277,-0.0593 0.35277,0.13475 0,0.19403 -0.15875,0.45089 -0.35277,0.57081 -0.19403,0.11991 -0.35278,0.0593 -0.35278,-0.13475 z m 1.05833,-1.78471 c 0,-0.18258 0.15875,-0.43007 0.35278,-0.54999 0.19403,-0.11991 0.35278,0.0295 0.35278,0.33196 0,0.30249 -0.15875,0.54999 -0.35278,0.54999 -0.19403,0 -0.35278,-0.14938 -0.35278,-0.33196 z m 1.41651,-2.40207 c -0.003,-0.43656 0.15335,-0.79375 0.34738,-0.79375 0.442,0 0.442,0.37438 0,1.05833 -0.27653,0.42791 -0.343,0.37728 -0.34738,-0.26458 z m 58.834978,55.003689 c 0.81654,-0.64689 1.48462,-1.30863 1.48462,-1.47053 0,-0.54125 -2.36358,-1.76302 -3.41066,-1.76302 -0.56889,0 -1.23045,-0.19611 -1.47014,-0.43579 -0.27433,-0.27434 -1.86892,-0.48485 -4.30388,-0.5682 l -3.8681,-0.13239 0.004,-3.40056 c 0.002,-1.87292 0.23814,-4.27219 0.52498,-5.34083 0.28644,-1.06716 0.52268,-3.17569 0.52498,-4.68564 0.002,-1.633 0.2186,-3.25851 0.53335,-4.01183 0.29105,-0.69657 0.52917,-2.25958 0.52917,-3.47337 0,-1.21379 0.23813,-2.7768 0.52917,-3.47336 0.29104,-0.69656 0.53479,-2.02564 0.54167,-2.9535 0.007,-0.92787 0.23937,-2.0839 0.51666,-2.56897 0.27729,-0.48507 0.51077,-1.51695 0.51884,-2.29306 0.008,-0.77611 0.25182,-1.86582 0.54167,-2.42158 0.28984,-0.555749 0.53262,-1.508249 0.53949,-2.116659 0.007,-0.60842 0.23938,-1.50308 0.51667,-1.98815 0.27729,-0.48507 0.51077,-1.35819 0.51884,-1.94028 0.008,-0.58208 0.25182,-1.51304 0.54166,-2.0688 0.28985,-0.55575 0.52798,-1.3495 0.52917,-1.76388 10e-4,-0.41439 0.23932,-1.20814 0.52917,-1.76389 0.28984,-0.55576 0.52699,-1.35387 0.52699,-1.77359 0,-0.41972 0.21784,-1.07626 0.48409,-1.45898 0.26625,-0.38272 0.59871,-1.22249 0.73881,-1.86615 0.14009,-0.64366 0.4769,-1.59616 0.74846,-2.11667 0.27155,-0.5205 0.49472,-1.11984 0.49591,-1.33186 0.001,-0.21201 0.39313,-1.08514 0.87095,-1.94028 0.47783,-0.85513 1.27817,-2.34854 1.77853,-3.31868 0.50036,-0.97013 1.05045,-2.00201 1.22243,-2.29305 0.17198,-0.29104 0.40251,-0.76729 0.51229,-1.05833 0.10978,-0.29105 0.3479,-0.7673 0.52916,-1.05834 0.18127,-0.29104 0.41939,-0.76729 0.52917,-1.05833 0.10978,-0.29104 0.34538,-0.76729 0.52355,-1.05833 0.17818,-0.29105 1.06005,-2.11667 1.95973,-4.05695 2.24382,-4.8391 2.85062,-5.94327 3.35931,-6.11283 0.33584,-0.11195 0.3871,0.53928 0.22093,2.80714 -0.119,1.62411 -0.31061,6.68354 -0.42582,11.24319 -0.17401,6.88772 -0.11422,8.69684 0.35347,10.69342 0.3096,1.32173 0.56397,3.06798 0.56524,3.88055 0.001,0.8595 0.28452,1.90547 0.67703,2.50087 0.79203,1.20143 3.01026,2.10218 3.94498,1.60193 0.34153,-0.18278 0.98858,-0.33761 1.43789,-0.34406 0.44932,-0.006 1.17413,-0.30972 1.6107,-0.67391 l 0.79375,-0.66217 0.021,-14.93651 c 0.0116,-8.21508 0.17557,-15.73026 0.36444,-16.7004 0.18888,-0.97014 0.47662,-3.20814 0.63943,-4.97335 0.16282,-1.76521 0.46075,-3.74958 0.66208,-4.40972 0.20132,-0.66014 0.45723,-2.62901 0.56869,-4.37526 0.11146,-1.74625 0.36391,-3.72958 0.56099,-4.40739 0.19708,-0.67782 0.35834,-2.99478 0.35834,-5.1488 0,-3.49782 -0.0772,-3.98622 -0.72184,-4.56965 -0.64968,-0.58796 -0.92041,-0.61161 -2.70834,-0.23659 -2.33088,0.48891 -4.46113,1.79298 -5.16238,3.16023 -0.74633,1.45515 -1.638,6.21701 -1.638,8.74752 0,2.7328 -0.44684,4.04218 -1.37943,4.04218 -0.38997,0 -1.89327,1.19186 -3.44848,2.73403 -2.40954,2.38934 -3.05731,3.32586 -5.13822,7.42852 -1.3096,2.58198 -2.38109,4.9041 -2.38109,5.16028 0,0.25618 -0.23813,0.6634 -0.52917,0.90495 -0.29104,0.24154 -0.52917,0.71779 -0.52917,1.05833 0,0.34054 -0.23812,0.81679 -0.52916,1.05833 -0.29104,0.24155 -0.52917,0.79717 -0.52917,1.23473 0,0.43755 -0.23812,0.99318 -0.52917,1.23472 -0.29104,0.24154 -0.52916,0.79717 -0.52916,1.23472 0,0.43756 -0.23813,0.99318 -0.52917,1.23472 -0.29104,0.24155 -0.52916,0.79717 -0.52916,1.23473 0,0.43755 -0.23813,0.99317 -0.52917,1.23472 -0.29104,0.24154 -0.52917,0.75242 -0.52917,1.13529 0,0.38287 -0.21611,1.11749 -0.48025,1.6325 -0.57517,1.12143 -1.23942,2.97781 -1.6325,4.56235 -0.1578,0.63609 -0.44133,1.35046 -0.63007,1.5875 -0.18875,0.23703 -0.45175,1.18133 -0.58445,2.09844 -0.1327,0.91711 -0.38168,1.75425 -0.55328,1.86031 -0.17161,0.10606 -0.41888,0.90546 -0.54949,1.77645 -0.13062,0.87099 -0.36874,1.66474 -0.52917,1.76389 -0.16043,0.0991 -0.39364,0.93063 -0.51826,1.84774 -0.12461,0.91711 -0.45128,2.16771 -0.72593,2.77912 -0.27466,0.61141 -0.49938,1.50483 -0.49938,1.98539 0,0.48056 -0.23812,1.44365 -0.52916,2.14022 -0.29104,0.69656 -0.52917,1.85645 -0.52917,2.57753 0,0.72108 -0.3374,2.008029 -0.74978,2.859889 -1.31083,2.70782 -1.52134,1.53505 -1.07445,-5.985789 0.22241,-3.74306 0.49123,-9.15126 0.59737,-12.01824 0.10615,-2.86697 0.37706,-5.6451 0.60204,-6.17361 0.25849,-0.60724 0.46012,-4.15158 0.5478,-9.62964 0.11748,-7.33966 0.0529,-8.87421 -0.42128,-10.00905 -0.30802,-0.73719 -0.56003,-1.77777 -0.56003,-2.3124 0,-1.5862 -0.71593,-1.89149 -3.7983,-1.61968 -3.192952,0.28156 -6.746588,1.75286 -7.682068,3.18058 -0.71258,1.08754 -0.55933,4.32496 0.22775,4.8114 0.35529,0.21958 0.55074,1.65157 0.72916,5.34226 0.13407,2.77325 0.4259,6.39165 0.64853,8.04088 0.29517,2.18664 0.32571,8.87343 0.11277,24.694449 -0.418,31.05645 -0.39181,31.62398 1.56558,33.93263 0.758496,0.89461 0.22598,1.34515 -1.58993,1.34515 -3.51895,0 -8.00233,0.77111 -8.82252,1.51741 -1.0328,0.93976 -1.07195,2.36314 -0.065,2.36314 0.40081,0 1.0755,0.19844 1.49931,0.44097 1.03025,0.5896 7.77082,0.87415 19.658848,0.82991 l 9.71607,-0.0362 z m -53.186288,-12.3203 c 0.47976,-0.53508 1.98355,-1.84097 3.34175,-2.90198 1.35819,-1.06101 2.55968,-2.05439 2.66997,-2.20751 0.31117,-0.43199 2.88317,-1.67743 3.49003,-1.68998 0.29853,-0.006 0.85093,-0.24429 1.22756,-0.52916 0.51809,-0.39187 1.76835,-0.51795 5.13605,-0.51795 3.36769,0 4.61795,0.12608 5.13604,0.51795 0.84399,0.63835 2.14374,0.69334 2.34979,0.0994 0.0841,-0.24253 0.10026,-4.72722 0.0358,-9.96597 -0.14199,-11.543459 -0.15102,-10.000019 0.0908,-15.522229 0.15997,-3.65349 0.0988,-4.72261 -0.3009,-5.25737 -0.60521,-0.80972 -1.1541,-0.54423 -1.46903,0.71054 -0.12809,0.51035 -0.46318,1.15818 -0.74464,1.43965 -0.28146,0.28146 -0.51175,0.79847 -0.51175,1.14891 0,0.35043 -0.23812,0.83478 -0.52917,1.07633 -0.29104,0.24154 -0.52916,0.74857 -0.52916,1.12672 0,0.37816 -0.23813,0.92569 -0.52917,1.21673 -0.29104,0.29104 -0.52917,0.83533 -0.52917,1.20952 0,0.3742 -0.16268,0.68036 -0.3615,0.68036 -0.19883,0 -0.52459,0.35719 -0.72389,0.79375 -0.39268,0.8601 -1.02954,1.956019 -2.10134,3.615969 -0.37584,0.58209 -0.84052,1.41553 -1.03263,1.85209 -0.1921,0.43656 -0.51196,0.79375 -0.71079,0.79375 -0.19883,0 -0.36151,0.17719 -0.36151,0.39375 0,0.21657 -0.79375,1.40379 -1.76389,2.63827 -0.97014,1.23448 -1.76389,2.32729 -1.76389,2.42846 0,0.10118 -0.27781,0.47483 -0.61736,0.83034 -0.70322,0.73628 -3.53058,3.97617 -5.74701,6.58557 -0.82404,0.97014 -2.66604,2.90905 -4.09333,4.3087 -1.42729,1.39964 -2.59508,2.69508 -2.59508,2.87876 0,0.57573 1.86995,3.21948 2.27717,3.21948 0.21336,0 0.78048,-0.43779 1.26025,-0.97286 z"
       style="fill:rgb(255, 132, 0);stroke-width:0.352778" />
  </g>
</svg>
